<svg width="86" height="86" viewBox="0 0 86 86" fill="none" xmlns="http://www.w3.org/2000/svg">
<path d="M84 43C84 20.3563 65.6437 2 43 2C20.3563 2 2 20.3563 2 43C2 65.6437 20.3563 84 43 84V86C19.2518 86 0 66.7482 0 43C0 19.2518 19.2518 0 43 0C66.7482 0 86 19.2518 86 43C86 66.7482 66.7482 86 43 86V84C65.6437 84 84 65.6437 84 43Z" fill="#795ADF"/>
<path d="M42.915 18C45.1045 18 47.2041 18.8716 48.7461 20.4238C50.2901 21.9764 51.151 24.0801 51.1387 26.2676C51.1283 28.4574 50.244 30.5501 48.6836 32.0859C49.5244 32.3532 50.3451 32.68 51.1387 33.0645V32.8262C51.1387 32.3719 51.5067 32.0041 51.9609 32.0039C54.3601 32.006 56.6592 32.96 58.3555 34.6562C60.0515 36.3521 61.0057 38.6506 61.0078 41.0498C61.0078 41.2678 60.9208 41.4776 60.7666 41.6318C60.6124 41.786 60.4025 41.8721 60.1846 41.8721H59.9463C61.186 44.438 61.8301 47.2491 61.8301 50.0967C61.8258 54.381 59.5968 58.3558 55.9434 60.5947L54.7178 65.498C54.4422 66.5959 53.455 67.3672 52.3223 67.3672H49.8555C48.7966 67.3651 47.8547 66.6861 47.5195 65.6807L46.4326 62.4326H39.3945L38.3154 65.6807C37.9803 66.688 37.0364 67.3671 35.9756 67.3672H33.5078C32.3752 67.367 31.3888 66.5957 31.1133 65.498V65.5L29.8877 60.5947H29.8887C26.2349 58.3557 24.0062 54.3813 24 50.0967C24 47.2492 24.643 44.438 25.8828 41.8721H25.6445C25.4266 41.872 25.2167 41.786 25.0625 41.6318C24.9084 41.4776 24.8223 41.2676 24.8223 41.0498C24.8244 38.6508 25.7785 36.3524 27.4746 34.6562C29.1705 32.9601 31.4689 32.006 33.8682 32.0039C34.086 32.0039 34.296 32.0901 34.4502 32.2441C34.6044 32.3983 34.6904 32.6083 34.6904 32.8262V33.0664C35.4861 32.682 36.3066 32.3553 37.1475 32.0859C35.5871 30.55 34.7028 28.4571 34.6904 26.2676C34.6802 24.0798 35.542 21.9761 37.084 20.4238C38.628 18.8715 40.7275 18 42.915 18ZM32.7061 65.0986C32.7985 65.4645 33.1277 65.7216 33.5059 65.7217H35.9736C36.3272 65.7216 36.6399 65.4953 36.7529 65.1582V65.1611L37.6611 62.4326H36.335C34.791 62.4305 33.2593 62.1379 31.8242 61.5664L32.7061 65.0986ZM54.0029 61.5664C52.5679 62.1359 51.0381 62.4305 49.4941 62.4326H48.168L49.0723 65.1592C49.1855 65.4961 49.4981 65.7217 49.8516 65.7217H52.3184C52.6966 65.7217 53.0256 65.4646 53.1182 65.0986L54.0029 61.5664ZM51.1387 34.917C46.0111 32.129 39.8181 32.129 34.6904 34.917V41.0498C34.6904 41.2677 34.6044 41.4776 34.4502 41.6318C34.296 41.786 34.0861 41.8721 33.8682 41.8721H27.7354C26.364 44.3969 25.6466 47.2245 25.6445 50.0967C25.6487 52.9315 26.7757 55.6478 28.7803 57.6523C30.7845 59.6567 33.5009 60.783 36.3359 60.7871H49.4941C52.329 60.7829 55.0453 59.6569 57.0498 57.6523C59.0543 55.6481 60.1804 52.9318 60.1846 50.0967C60.1825 47.2245 59.4651 44.3969 58.0938 41.8721H51.9609C51.743 41.872 51.5331 41.786 51.3789 41.6318C51.2248 41.4776 51.1387 41.2677 51.1387 41.0498V34.917ZM42.9141 49.2744C46.5408 49.2744 49.4941 51.4868 49.4941 54.209C49.4938 56.9309 46.5406 59.1426 42.9141 59.1426C39.2877 59.1424 36.3353 56.9308 36.335 54.209C36.335 51.4869 39.2875 49.2746 42.9141 49.2744ZM42.9141 50.9189C40.2394 50.9191 37.9805 52.4265 37.9805 54.209C37.9808 55.9912 40.2396 57.4979 42.9141 57.498C45.5887 57.498 47.8483 55.9913 47.8486 54.209C47.8486 52.4264 45.5889 50.9189 42.9141 50.9189Z" fill="#795ADF"/>
</svg>

